<svg width="927" height="50" viewBox="0 0 927 50" fill="none" xmlns="http://www.w3.org/2000/svg">
<path d="M920.75 8.75008L920 8.75007L920.75 8.75008ZM921.28 49.2804C920.987 49.5733 920.512 49.5733 920.219 49.2804L915.446 44.5074C915.153 44.2145 915.153 43.7396 915.446 43.4467C915.739 43.1538 916.214 43.1538 916.507 43.4467L920.75 47.6894L924.992 43.4468C925.285 43.1539 925.76 43.1539 926.053 43.4468C926.346 43.7397 926.346 44.2146 926.053 44.5075L921.28 49.2804ZM8.75 0.750055L8.75 5.51236e-05L8.75 0.750055ZM912.75 0.750019L912.75 1.50002L912.75 0.750019ZM920.75 48.7501L920 48.7501L920 45.4167L920.75 45.4167L921.5 45.4167L921.5 48.7501L920.75 48.7501ZM920.75 38.7501L920 38.7501L920 32.0834L920.75 32.0834L921.5 32.0834L921.5 38.7501L920.75 38.7501ZM920.75 25.4167L920 25.4167L920 18.7501L920.75 18.7501L921.5 18.7501L921.5 25.4167L920.75 25.4167ZM920.75 12.0834L920 12.0834L920 8.75007L920.75 8.75008L921.5 8.75009L921.5 12.0834L920.75 12.0834ZM920.75 8.75008L920 8.75007C920 7.76565 919.804 6.82884 919.45 5.97504L920.143 5.68776L920.836 5.40047C921.264 6.43321 921.5 7.56504 921.5 8.75009L920.75 8.75008ZM915.812 1.35707L915.525 2.04986C914.671 1.69581 913.734 1.50002 912.75 1.50002L912.75 0.750019L912.75 1.94232e-05C913.935 1.93714e-05 915.067 0.236016 916.1 0.664276L915.812 1.35707ZM912.75 0.750019L912.75 1.50002L908.785 1.50002L908.785 0.75002L908.785 1.95965e-05L912.75 1.94232e-05L912.75 0.750019ZM900.855 0.75002L900.855 1.50002L892.925 1.50002L892.925 0.75002L892.925 2.02897e-05L900.855 1.99431e-05L900.855 0.75002ZM884.996 0.750021L884.996 1.50002L877.066 1.50002L877.066 0.750021L877.066 2.0983e-05L884.996 2.06364e-05L884.996 0.750021ZM869.136 0.750021L869.136 1.50002L861.206 1.50002L861.206 0.750022L861.206 2.16762e-05L869.136 2.13296e-05L869.136 0.750021ZM853.276 0.750022L853.276 1.50002L845.346 1.50002L845.346 0.750022L845.346 2.23695e-05L853.276 2.20229e-05L853.276 0.750022ZM837.417 0.750023L837.417 1.50002L829.487 1.50002L829.487 0.750023L829.487 2.30627e-05L837.417 2.27161e-05L837.417 0.750023ZM821.557 0.750023L821.557 1.50002L813.627 1.50002L813.627 0.750024L813.627 2.3756e-05L821.557 2.34094e-05L821.557 0.750023ZM805.697 0.750024L805.697 1.50002L797.767 1.50002L797.767 0.750024L797.767 2.44492e-05L805.697 2.41026e-05L805.697 0.750024ZM789.838 0.750025L789.838 1.50002L781.908 1.50003L781.908 0.750025L781.908 2.51425e-05L789.838 2.47958e-05L789.838 0.750025ZM773.978 0.750025L773.978 1.50003L766.048 1.50003L766.048 0.750026L766.048 2.58357e-05L773.978 2.54891e-05L773.978 0.750025ZM758.118 0.750026L758.118 1.50003L750.189 1.50003L750.189 0.750027L750.189 2.6529e-05L758.118 2.61823e-05L758.118 0.750026ZM742.259 0.750027L742.259 1.50003L734.329 1.50003L734.329 0.750027L734.329 2.72222e-05L742.259 2.68756e-05L742.259 0.750027ZM726.399 0.750028L726.399 1.50003L718.469 1.50003L718.469 0.750028L718.469 2.79155e-05L726.399 2.75688e-05L726.399 0.750028ZM710.539 0.750028L710.539 1.50003L702.61 1.50003L702.61 0.750029L702.61 2.86087e-05L710.539 2.82621e-05L710.539 0.750028ZM694.68 0.750029L694.68 1.50003L686.75 1.50003L686.75 0.750029L686.75 2.9302e-05L694.68 2.89553e-05L694.68 0.750029ZM678.82 0.75003L678.82 1.50003L670.89 1.50003L670.89 0.75003L670.89 2.99952e-05L678.82 2.96486e-05L678.82 0.75003ZM662.96 0.75003L662.96 1.50003L655.031 1.50003L655.031 0.750031L655.031 3.06884e-05L662.96 3.03418e-05L662.96 0.75003ZM647.101 0.750031L647.101 1.50003L639.171 1.50003L639.171 0.750031L639.171 3.13817e-05L647.101 3.10351e-05L647.101 0.750031ZM631.241 0.750032L631.241 1.50003L623.311 1.50003L623.311 0.750032L623.311 3.20749e-05L631.241 3.17283e-05L631.241 0.750032ZM615.382 0.750032L615.382 1.50003L607.452 1.50003L607.452 0.750033L607.452 3.27682e-05L615.382 3.24216e-05L615.382 0.750032ZM599.522 0.750033L599.522 1.50003L591.592 1.50003L591.592 0.750033L591.592 3.34614e-05L599.522 3.31148e-05L599.522 0.750033ZM583.662 0.750034L583.662 1.50003L575.733 1.50003L575.733 0.750034L575.733 3.41547e-05L583.662 3.38081e-05L583.662 0.750034ZM567.803 0.750035L567.803 1.50003L559.873 1.50003L559.873 0.750035L559.873 3.48479e-05L567.803 3.45013e-05L567.803 0.750035ZM551.943 0.750035L551.943 1.50004L544.013 1.50004L544.013 0.750036L544.013 3.55412e-05L551.943 3.51945e-05L551.943 0.750035ZM536.083 0.750036L536.083 1.50004L528.154 1.50004L528.154 0.750036L528.154 3.62344e-05L536.083 3.58878e-05L536.083 0.750036ZM520.224 0.750037L520.224 1.50004L512.294 1.50004L512.294 0.750037L512.294 3.69277e-05L520.224 3.6581e-05L520.224 0.750037ZM504.364 0.750037L504.364 1.50004L496.434 1.50004L496.434 0.750038L496.434 3.76209e-05L504.364 3.72743e-05L504.364 0.750037ZM488.505 0.750038L488.505 1.50004L480.575 1.50004L480.575 0.750038L480.575 3.83142e-05L488.505 3.79675e-05L488.505 0.750038ZM472.645 0.750039L472.645 1.50004L464.715 1.50004L464.715 0.750039L464.715 3.90074e-05L472.645 3.86608e-05L472.645 0.750039ZM456.785 0.750036L456.785 1.50004L448.856 1.50004L448.856 0.750036L448.856 3.58859e-05L456.785 3.55393e-05L456.785 0.750036ZM440.926 0.750036L440.926 1.50004L432.996 1.50004L432.996 0.750037L432.996 3.65792e-05L440.926 3.62326e-05L440.926 0.750036ZM425.066 0.750037L425.066 1.50004L417.136 1.50004L417.136 0.750037L417.136 3.72724e-05L425.066 3.69258e-05L425.066 0.750037ZM409.207 0.750038L409.207 1.50004L401.277 1.50004L401.277 0.750038L401.277 3.79657e-05L409.207 3.76191e-05L409.207 0.750038ZM393.347 0.750038L393.347 1.50004L385.417 1.50004L385.417 0.750039L385.417 3.86589e-05L393.347 3.83123e-05L393.347 0.750038ZM377.487 0.750039L377.487 1.50004L369.557 1.50004L369.557 0.750039L369.557 3.93522e-05L377.487 3.90056e-05L377.487 0.750039ZM361.628 0.75004L361.628 1.50004L353.698 1.50004L353.698 0.75004L353.698 4.00454e-05L361.628 3.96988e-05L361.628 0.75004ZM345.768 0.75004L345.768 1.50004L337.838 1.50004L337.838 0.750041L337.838 4.07387e-05L345.768 4.0392e-05L345.768 0.75004ZM329.908 0.750041L329.908 1.50004L321.979 1.50004L321.979 0.750041L321.979 4.14319e-05L329.908 4.10853e-05L329.908 0.750041ZM314.049 0.750042L314.049 1.50004L306.119 1.50004L306.119 0.750042L306.119 4.21252e-05L314.049 4.17785e-05L314.049 0.750042ZM298.189 0.750042L298.189 1.50004L290.259 1.50004L290.259 0.750043L290.259 4.28184e-05L298.189 4.24718e-05L298.189 0.750042ZM282.33 0.750043L282.33 1.50004L274.4 1.50004L274.4 0.750044L274.4 4.35117e-05L282.33 4.3165e-05L282.33 0.750043ZM266.47 0.750044L266.47 1.50004L258.54 1.50004L258.54 0.750044L258.54 4.42049e-05L266.47 4.38583e-05L266.47 0.750044ZM250.61 0.750045L250.61 1.50004L242.681 1.50004L242.681 0.750045L242.681 4.48981e-05L250.61 4.45515e-05L250.61 0.750045ZM234.751 0.750045L234.751 1.50005L226.821 1.50005L226.821 0.750046L226.821 4.55914e-05L234.751 4.52448e-05L234.751 0.750045ZM218.891 0.750046L218.891 1.50005L210.961 1.50005L210.961 0.750046L210.961 4.62846e-05L218.891 4.5938e-05L218.891 0.750046ZM203.031 0.750047L203.031 1.50005L195.102 1.50005L195.102 0.750047L195.102 4.69779e-05L203.031 4.66313e-05L203.031 0.750047ZM187.172 0.750047L187.172 1.50005L179.242 1.50005L179.242 0.750048L179.242 4.76711e-05L187.172 4.73245e-05L187.172 0.750047ZM171.312 0.750048L171.312 1.50005L163.382 1.50005L163.382 0.750048L163.382 4.83644e-05L171.312 4.80178e-05L171.312 0.750048ZM155.453 0.750049L155.453 1.50005L147.523 1.50005L147.523 0.750049L147.523 4.90576e-05L155.453 4.8711e-05L155.453 0.750049ZM139.593 0.750049L139.593 1.50005L131.663 1.50005L131.663 0.75005L131.663 4.97509e-05L139.593 4.94042e-05L139.593 0.750049ZM123.733 0.75005L123.733 1.50005L115.804 1.50005L115.804 0.75005L115.804 5.04441e-05L123.733 5.00975e-05L123.733 0.75005ZM107.874 0.750051L107.874 1.50005L99.944 1.50005L99.944 0.750051L99.944 5.11374e-05L107.874 5.07907e-05L107.874 0.750051ZM92.0142 0.750051L92.0142 1.50005L84.0843 1.50005L84.0843 0.750052L84.0843 5.18306e-05L92.0142 5.1484e-05L92.0142 0.750051ZM76.1545 0.750052L76.1545 1.50005L68.2247 1.50005L68.2247 0.750053L68.2247 5.25239e-05L76.1545 5.21772e-05L76.1545 0.750052ZM60.2949 0.750053L60.2949 1.50005L52.3651 1.50005L52.3651 0.750053L52.3651 5.32171e-05L60.2949 5.28705e-05L60.2949 0.750053ZM44.4353 0.750054L44.4353 1.50005L36.5055 1.50005L36.5055 0.750054L36.5055 5.39103e-05L44.4353 5.35637e-05L44.4353 0.750054ZM28.5757 0.750054L28.5757 1.50005L20.6459 1.50005L20.6459 0.750055L20.6459 5.46036e-05L28.5757 5.4257e-05L28.5757 0.750054ZM12.7161 0.750055L12.7161 1.50005L8.75 1.50006L8.75 0.750055L8.75 5.51236e-05L12.7161 5.49502e-05L12.7161 0.750055ZM8.75 0.750055L8.75 1.50006C7.76556 1.50006 6.82879 1.69584 5.97497 2.04989L5.68768 1.3571L5.40039 0.664309C6.43316 0.236048 7.56494 5.51754e-05 8.75 5.51236e-05L8.75 0.750055ZM1.35705 5.68776L2.04986 5.97505C1.6958 6.82884 1.5 7.76564 1.5 8.75006L0.749998 8.75006L-1.74846e-06 8.75006C-1.80026e-06 7.56502 0.236021 6.4332 0.664244 5.40047L1.35705 5.68776ZM0.749998 8.75006L1.5 8.75006L1.5 12.0315L0.749998 12.0315L-1.60502e-06 12.0315L-1.74846e-06 8.75006L0.749998 8.75006ZM0.749999 18.5942L1.5 18.5942L1.5 25.157L0.749999 25.157L-1.03129e-06 25.157L-1.31816e-06 18.5942L0.749999 18.5942ZM0.749999 31.7198L1.5 31.7198L1.5 38.2825L0.75 38.2825L-4.57552e-07 38.2825L-7.4442e-07 31.7198L0.749999 31.7198ZM0.75 44.8453L1.5 44.8453L1.5 48.1267L0.75 48.1267L-2.72502e-08 48.1267L-1.70684e-07 44.8453L0.75 44.8453ZM920.75 8.75008L920 8.75007L920.75 8.75008ZM921.28 49.2804C920.987 49.5733 920.512 49.5733 920.219 49.2804L915.446 44.5074C915.153 44.2145 915.153 43.7396 915.446 43.4467C915.739 43.1538 916.214 43.1538 916.507 43.4467L920.75 47.6894L924.992 43.4468C925.285 43.1539 925.76 43.1539 926.053 43.4468C926.346 43.7397 926.346 44.2146 926.053 44.5075L921.28 49.2804ZM8.75 0.750055L8.75 5.51236e-05L8.75 0.750055ZM912.75 0.750019L912.75 1.50002L912.75 0.750019ZM920.75 48.7501L920 48.7501L920 45.4167L920.75 45.4167L921.5 45.4167L921.5 48.7501L920.75 48.7501ZM920.75 38.7501L920 38.7501L920 32.0834L920.75 32.0834L921.5 32.0834L921.5 38.7501L920.75 38.7501ZM920.75 25.4167L920 25.4167L920 18.7501L920.75 18.7501L921.5 18.7501L921.5 25.4167L920.75 25.4167ZM920.75 12.0834L920 12.0834L920 8.75007L920.75 8.75008L921.5 8.75009L921.5 12.0834L920.75 12.0834ZM920.75 8.75008L920 8.75007C920 7.76565 919.804 6.82884 919.45 5.97504L920.143 5.68776L920.836 5.40047C921.264 6.43321 921.5 7.56504 921.5 8.75009L920.75 8.75008ZM915.812 1.35707L915.525 2.04986C914.671 1.69581 913.734 1.50002 912.75 1.50002L912.75 0.750019L912.75 1.94232e-05C913.935 1.93714e-05 915.067 0.236016 916.1 0.664276L915.812 1.35707ZM912.75 0.750019L912.75 1.50002L908.785 1.50002L908.785 0.75002L908.785 1.95965e-05L912.75 1.94232e-05L912.75 0.750019ZM900.855 0.75002L900.855 1.50002L892.925 1.50002L892.925 0.75002L892.925 2.02897e-05L900.855 1.99431e-05L900.855 0.75002ZM884.996 0.750021L884.996 1.50002L877.066 1.50002L877.066 0.750021L877.066 2.0983e-05L884.996 2.06364e-05L884.996 0.750021ZM869.136 0.750021L869.136 1.50002L861.206 1.50002L861.206 0.750022L861.206 2.16762e-05L869.136 2.13296e-05L869.136 0.750021ZM853.276 0.750022L853.276 1.50002L845.346 1.50002L845.346 0.750022L845.346 2.23695e-05L853.276 2.20229e-05L853.276 0.750022ZM837.417 0.750023L837.417 1.50002L829.487 1.50002L829.487 0.750023L829.487 2.30627e-05L837.417 2.27161e-05L837.417 0.750023ZM821.557 0.750023L821.557 1.50002L813.627 1.50002L813.627 0.750024L813.627 2.3756e-05L821.557 2.34094e-05L821.557 0.750023ZM805.697 0.750024L805.697 1.50002L797.767 1.50002L797.767 0.750024L797.767 2.44492e-05L805.697 2.41026e-05L805.697 0.750024ZM789.838 0.750025L789.838 1.50002L781.908 1.50003L781.908 0.750025L781.908 2.51425e-05L789.838 2.47958e-05L789.838 0.750025ZM773.978 0.750025L773.978 1.50003L766.048 1.50003L766.048 0.750026L766.048 2.58357e-05L773.978 2.54891e-05L773.978 0.750025ZM758.118 0.750026L758.118 1.50003L750.189 1.50003L750.189 0.750027L750.189 2.6529e-05L758.118 2.61823e-05L758.118 0.750026ZM742.259 0.750027L742.259 1.50003L734.329 1.50003L734.329 0.750027L734.329 2.72222e-05L742.259 2.68756e-05L742.259 0.750027ZM726.399 0.750028L726.399 1.50003L718.469 1.50003L718.469 0.750028L718.469 2.79155e-05L726.399 2.75688e-05L726.399 0.750028ZM710.539 0.750028L710.539 1.50003L702.61 1.50003L702.61 0.750029L702.61 2.86087e-05L710.539 2.82621e-05L710.539 0.750028ZM694.68 0.750029L694.68 1.50003L686.75 1.50003L686.75 0.750029L686.75 2.9302e-05L694.68 2.89553e-05L694.68 0.750029ZM678.82 0.75003L678.82 1.50003L670.89 1.50003L670.89 0.75003L670.89 2.99952e-05L678.82 2.96486e-05L678.82 0.75003ZM662.96 0.75003L662.96 1.50003L655.031 1.50003L655.031 0.750031L655.031 3.06884e-05L662.96 3.03418e-05L662.96 0.75003ZM647.101 0.750031L647.101 1.50003L639.171 1.50003L639.171 0.750031L639.171 3.13817e-05L647.101 3.10351e-05L647.101 0.750031ZM631.241 0.750032L631.241 1.50003L623.311 1.50003L623.311 0.750032L623.311 3.20749e-05L631.241 3.17283e-05L631.241 0.750032ZM615.382 0.750032L615.382 1.50003L607.452 1.50003L607.452 0.750033L607.452 3.27682e-05L615.382 3.24216e-05L615.382 0.750032ZM599.522 0.750033L599.522 1.50003L591.592 1.50003L591.592 0.750033L591.592 3.34614e-05L599.522 3.31148e-05L599.522 0.750033ZM583.662 0.750034L583.662 1.50003L575.733 1.50003L575.733 0.750034L575.733 3.41547e-05L583.662 3.38081e-05L583.662 0.750034ZM567.803 0.750035L567.803 1.50003L559.873 1.50003L559.873 0.750035L559.873 3.48479e-05L567.803 3.45013e-05L567.803 0.750035ZM551.943 0.750035L551.943 1.50004L544.013 1.50004L544.013 0.750036L544.013 3.55412e-05L551.943 3.51945e-05L551.943 0.750035ZM536.083 0.750036L536.083 1.50004L528.154 1.50004L528.154 0.750036L528.154 3.62344e-05L536.083 3.58878e-05L536.083 0.750036ZM520.224 0.750037L520.224 1.50004L512.294 1.50004L512.294 0.750037L512.294 3.69277e-05L520.224 3.6581e-05L520.224 0.750037ZM504.364 0.750037L504.364 1.50004L496.434 1.50004L496.434 0.750038L496.434 3.76209e-05L504.364 3.72743e-05L504.364 0.750037ZM488.505 0.750038L488.505 1.50004L480.575 1.50004L480.575 0.750038L480.575 3.83142e-05L488.505 3.79675e-05L488.505 0.750038ZM472.645 0.750039L472.645 1.50004L464.715 1.50004L464.715 0.750039L464.715 3.90074e-05L472.645 3.86608e-05L472.645 0.750039ZM456.785 0.750036L456.785 1.50004L448.856 1.50004L448.856 0.750036L448.856 3.58859e-05L456.785 3.55393e-05L456.785 0.750036ZM440.926 0.750036L440.926 1.50004L432.996 1.50004L432.996 0.750037L432.996 3.65792e-05L440.926 3.62326e-05L440.926 0.750036ZM425.066 0.750037L425.066 1.50004L417.136 1.50004L417.136 0.750037L417.136 3.72724e-05L425.066 3.69258e-05L425.066 0.750037ZM409.207 0.750038L409.207 1.50004L401.277 1.50004L401.277 0.750038L401.277 3.79657e-05L409.207 3.76191e-05L409.207 0.750038ZM393.347 0.750038L393.347 1.50004L385.417 1.50004L385.417 0.750039L385.417 3.86589e-05L393.347 3.83123e-05L393.347 0.750038ZM377.487 0.750039L377.487 1.50004L369.557 1.50004L369.557 0.750039L369.557 3.93522e-05L377.487 3.90056e-05L377.487 0.750039ZM361.628 0.75004L361.628 1.50004L353.698 1.50004L353.698 0.75004L353.698 4.00454e-05L361.628 3.96988e-05L361.628 0.75004ZM345.768 0.75004L345.768 1.50004L337.838 1.50004L337.838 0.750041L337.838 4.07387e-05L345.768 4.0392e-05L345.768 0.75004ZM329.908 0.750041L329.908 1.50004L321.979 1.50004L321.979 0.750041L321.979 4.14319e-05L329.908 4.10853e-05L329.908 0.750041ZM314.049 0.750042L314.049 1.50004L306.119 1.50004L306.119 0.750042L306.119 4.21252e-05L314.049 4.17785e-05L314.049 0.750042ZM298.189 0.750042L298.189 1.50004L290.259 1.50004L290.259 0.750043L290.259 4.28184e-05L298.189 4.24718e-05L298.189 0.750042ZM282.33 0.750043L282.33 1.50004L274.4 1.50004L274.4 0.750044L274.4 4.35117e-05L282.33 4.3165e-05L282.33 0.750043ZM266.47 0.750044L266.47 1.50004L258.54 1.50004L258.54 0.750044L258.54 4.42049e-05L266.47 4.38583e-05L266.47 0.750044ZM250.61 0.750045L250.61 1.50004L242.681 1.50004L242.681 0.750045L242.681 4.48981e-05L250.61 4.45515e-05L250.61 0.750045ZM234.751 0.750045L234.751 1.50005L226.821 1.50005L226.821 0.750046L226.821 4.55914e-05L234.751 4.52448e-05L234.751 0.750045ZM218.891 0.750046L218.891 1.50005L210.961 1.50005L210.961 0.750046L210.961 4.62846e-05L218.891 4.5938e-05L218.891 0.750046ZM203.031 0.750047L203.031 1.50005L195.102 1.50005L195.102 0.750047L195.102 4.69779e-05L203.031 4.66313e-05L203.031 0.750047ZM187.172 0.750047L187.172 1.50005L179.242 1.50005L179.242 0.750048L179.242 4.76711e-05L187.172 4.73245e-05L187.172 0.750047ZM171.312 0.750048L171.312 1.50005L163.382 1.50005L163.382 0.750048L163.382 4.83644e-05L171.312 4.80178e-05L171.312 0.750048ZM155.453 0.750049L155.453 1.50005L147.523 1.50005L147.523 0.750049L147.523 4.90576e-05L155.453 4.8711e-05L155.453 0.750049ZM139.593 0.750049L139.593 1.50005L131.663 1.50005L131.663 0.75005L131.663 4.97509e-05L139.593 4.94042e-05L139.593 0.750049ZM123.733 0.75005L123.733 1.50005L115.804 1.50005L115.804 0.75005L115.804 5.04441e-05L123.733 5.00975e-05L123.733 0.75005ZM107.874 0.750051L107.874 1.50005L99.944 1.50005L99.944 0.750051L99.944 5.11374e-05L107.874 5.07907e-05L107.874 0.750051ZM92.0142 0.750051L92.0142 1.50005L84.0843 1.50005L84.0843 0.750052L84.0843 5.18306e-05L92.0142 5.1484e-05L92.0142 0.750051ZM76.1545 0.750052L76.1545 1.50005L68.2247 1.50005L68.2247 0.750053L68.2247 5.25239e-05L76.1545 5.21772e-05L76.1545 0.750052ZM60.2949 0.750053L60.2949 1.50005L52.3651 1.50005L52.3651 0.750053L52.3651 5.32171e-05L60.2949 5.28705e-05L60.2949 0.750053ZM44.4353 0.750054L44.4353 1.50005L36.5055 1.50005L36.5055 0.750054L36.5055 5.39103e-05L44.4353 5.35637e-05L44.4353 0.750054ZM28.5757 0.750054L28.5757 1.50005L20.6459 1.50005L20.6459 0.750055L20.6459 5.46036e-05L28.5757 5.4257e-05L28.5757 0.750054ZM12.7161 0.750055L12.7161 1.50005L8.75 1.50006L8.75 0.750055L8.75 5.51236e-05L12.7161 5.49502e-05L12.7161 0.750055ZM8.75 0.750055L8.75 1.50006C7.76556 1.50006 6.82879 1.69584 5.97497 2.04989L5.68768 1.3571L5.40039 0.664309C6.43316 0.236048 7.56494 5.51754e-05 8.75 5.51236e-05L8.75 0.750055ZM1.35705 5.68776L2.04986 5.97505C1.6958 6.82884 1.5 7.76564 1.5 8.75006L0.749998 8.75006L-1.74846e-06 8.75006C-1.80026e-06 7.56502 0.236021 6.4332 0.664244 5.40047L1.35705 5.68776ZM0.749998 8.75006L1.5 8.75006L1.5 12.0315L0.749998 12.0315L-1.60502e-06 12.0315L-1.74846e-06 8.75006L0.749998 8.75006ZM0.749999 18.5942L1.5 18.5942L1.5 25.157L0.749999 25.157L-1.03129e-06 25.157L-1.31816e-06 18.5942L0.749999 18.5942ZM0.749999 31.7198L1.5 31.7198L1.5 38.2825L0.75 38.2825L-4.57552e-07 38.2825L-7.4442e-07 31.7198L0.749999 31.7198ZM0.75 44.8453L1.5 44.8453L1.5 48.1267L0.75 48.1267L-2.72502e-08 48.1267L-1.70684e-07 44.8453L0.75 44.8453Z" fill="white" fill-opacity="0.2"/>
</svg>
