<svg width="92" height="12" viewBox="0 0 92 12" fill="none" xmlns="http://www.w3.org/2000/svg">
<path d="M91.5303 6.05328C91.8232 5.76039 91.8232 5.28551 91.5303 4.99262L86.7574 0.219648C86.4645 -0.073245 85.9896 -0.073245 85.6967 0.219648C85.4038 0.512542 85.4038 0.987415 85.6967 1.28031L89.9393 5.52295L85.6967 9.76559C85.4038 10.0585 85.4038 10.5334 85.6967 10.8263C85.9896 11.1191 86.4645 11.1191 86.7574 10.8263L91.5303 6.05328ZM3.79167 6.27295H4.54167V4.77295H3.79167V5.52295V6.27295ZM11.375 4.77295H10.625V6.27295H11.375V5.52295V4.77295ZM18.9583 6.27295H19.7083V4.77295H18.9583V5.52295V6.27295ZM26.5417 4.77295H25.7917V6.27295H26.5417V5.52295V4.77295ZM34.125 6.27295H34.875V4.77295H34.125V5.52295V6.27295ZM41.7083 4.77295H40.9583V6.27295H41.7083V5.52295V4.77295ZM49.2917 6.27295H50.0417V4.77295H49.2917V5.52295V6.27295ZM56.875 4.77295H56.125V6.27295H56.875V5.52295V4.77295ZM64.4583 6.27295H65.2083V4.77295H64.4583V5.52295V6.27295ZM72.0417 4.77295H71.2917V6.27295H72.0417V5.52295V4.77295ZM79.625 6.27295H80.375V4.77295H79.625V5.52295V6.27295ZM87.2083 4.77295H86.4583V6.27295H87.2083V5.52295V4.77295ZM0 5.52295V6.27295H3.79167V5.52295V4.77295H0V5.52295ZM11.375 5.52295V6.27295H18.9583V5.52295V4.77295H11.375V5.52295ZM26.5417 5.52295V6.27295H34.125V5.52295V4.77295H26.5417V5.52295ZM41.7083 5.52295V6.27295H49.2917V5.52295V4.77295H41.7083V5.52295ZM56.875 5.52295V6.27295H64.4583V5.52295V4.77295H56.875V5.52295ZM72.0417 5.52295V6.27295H79.625V5.52295V4.77295H72.0417V5.52295ZM87.2083 5.52295V6.27295H91V5.52295V4.77295H87.2083V5.52295ZM91.5303 6.05328C91.8232 5.76039 91.8232 5.28551 91.5303 4.99262L86.7574 0.219648C86.4645 -0.073245 85.9896 -0.073245 85.6967 0.219648C85.4038 0.512542 85.4038 0.987415 85.6967 1.28031L89.9393 5.52295L85.6967 9.76559C85.4038 10.0585 85.4038 10.5334 85.6967 10.8263C85.9896 11.1191 86.4645 11.1191 86.7574 10.8263L91.5303 6.05328ZM3.79167 6.27295H4.54167V4.77295H3.79167V5.52295V6.27295ZM11.375 4.77295H10.625V6.27295H11.375V5.52295V4.77295ZM18.9583 6.27295H19.7083V4.77295H18.9583V5.52295V6.27295ZM26.5417 4.77295H25.7917V6.27295H26.5417V5.52295V4.77295ZM34.125 6.27295H34.875V4.77295H34.125V5.52295V6.27295ZM41.7083 4.77295H40.9583V6.27295H41.7083V5.52295V4.77295ZM49.2917 6.27295H50.0417V4.77295H49.2917V5.52295V6.27295ZM56.875 4.77295H56.125V6.27295H56.875V5.52295V4.77295ZM64.4583 6.27295H65.2083V4.77295H64.4583V5.52295V6.27295ZM72.0417 4.77295H71.2917V6.27295H72.0417V5.52295V4.77295ZM79.625 6.27295H80.375V4.77295H79.625V5.52295V6.27295ZM87.2083 4.77295H86.4583V6.27295H87.2083V5.52295V4.77295ZM0 5.52295V6.27295H3.79167V5.52295V4.77295H0V5.52295ZM11.375 5.52295V6.27295H18.9583V5.52295V4.77295H11.375V5.52295ZM26.5417 5.52295V6.27295H34.125V5.52295V4.77295H26.5417V5.52295ZM41.7083 5.52295V6.27295H49.2917V5.52295V4.77295H41.7083V5.52295ZM56.875 5.52295V6.27295H64.4583V5.52295V4.77295H56.875V5.52295ZM72.0417 5.52295V6.27295H79.625V5.52295V4.77295H72.0417V5.52295ZM87.2083 5.52295V6.27295H91V5.52295V4.77295H87.2083V5.52295Z" fill="white"/>
</svg>
