<svg xmlns="http://www.w3.org/2000/svg" width="8" height="25" viewBox="0 0 8 25" fill="none">
  <path d="M4.03324 24.3536C3.83798 24.5488 3.5214 24.5488 3.32613 24.3536L0.144154 21.1716C-0.0511086 20.9763 -0.0511086 20.6597 0.144154 20.4645C0.339416 20.2692 0.655998 20.2692 0.85126 20.4645L3.67969 23.2929L6.50811 20.4645C6.70338 20.2692 7.01996 20.2692 7.21522 20.4645C7.41048 20.6597 7.41048 20.9763 7.21522 21.1716L4.03324 24.3536ZM4.17969 3V3.5H3.17969V3H3.67969H4.17969ZM3.17969 9V8.5H4.17969V9H3.67969H3.17969ZM4.17969 15V15.5H3.17969V15H3.67969H4.17969ZM3.17969 21V20.5H4.17969L4.17969 21H3.67969H3.17969ZM3.67969 0L4.17969 0V3H3.67969H3.17969V0L3.67969 0ZM3.67969 9H4.17969V15H3.67969H3.17969L3.17969 9H3.67969ZM3.67969 21H4.17969V24H3.67969H3.17969V21H3.67969ZM4.03324 24.3536C3.83798 24.5488 3.5214 24.5488 3.32613 24.3536L0.144154 21.1716C-0.0511086 20.9763 -0.0511086 20.6597 0.144154 20.4645C0.339416 20.2692 0.655998 20.2692 0.85126 20.4645L3.67969 23.2929L6.50811 20.4645C6.70338 20.2692 7.01996 20.2692 7.21522 20.4645C7.41048 20.6597 7.41048 20.9763 7.21522 21.1716L4.03324 24.3536ZM4.17969 3V3.5H3.17969V3H3.67969H4.17969ZM3.17969 9V8.5H4.17969V9H3.67969H3.17969ZM4.17969 15V15.5H3.17969V15H3.67969H4.17969ZM3.17969 21V20.5H4.17969L4.17969 21H3.67969H3.17969ZM3.67969 0L4.17969 0V3H3.67969H3.17969V0L3.67969 0ZM3.67969 9H4.17969V15H3.67969H3.17969L3.17969 9H3.67969ZM3.67969 21H4.17969V24H3.67969H3.17969V21H3.67969Z" fill="white"/>
</svg>