<svg xmlns="http://www.w3.org/2000/svg" width="26" height="411" viewBox="0 0 26 411" fill="none">
  <path d="M4.75003 5.52298L4.75003 4.77298L4.75003 5.52298ZM25.2803 4.99278C25.5732 5.28568 25.5732 5.76055 25.2803 6.05344L20.5073 10.8264C20.2144 11.1193 19.7396 11.1193 19.4467 10.8264C19.1538 10.5335 19.1538 10.0586 19.4467 9.76572L23.6893 5.5231L19.4467 1.28043C19.1538 0.987539 19.1538 0.512665 19.4467 0.219774C19.7396 -0.0731177 20.2145 -0.0731144 20.5074 0.219781L25.2803 4.99278ZM0.75 405.523H0H0.75ZM0.750002 9.52297H1.5H0.750002ZM24.75 5.52311L24.75 6.27311L19.75 6.27308L19.75 5.52308L19.75 4.77308L24.75 4.77311L24.75 5.52311ZM9.75002 5.52301L9.75002 6.27301L4.75002 6.27298L4.75003 5.52298L4.75003 4.77298L9.75003 4.77301L9.75002 5.52301ZM4.75003 5.52298L4.75002 6.27298C2.95509 6.27296 1.5 7.72804 1.5 9.52297H0.750002H1.90735e-06C1.90735e-06 6.89961 2.12667 4.77296 4.75003 4.77298L4.75003 5.52298ZM0.750002 9.52297H1.5V13.483H0.750002H1.90735e-06V9.52297H0.750002ZM0.750002 21.403H1.5V29.323H0.750002H1.90735e-06V21.403H0.750002ZM0.750002 37.243H1.5L1.5 45.163H0.750002H1.90735e-06L1.90735e-06 37.243H0.750002ZM0.750002 53.083H1.5L1.5 61.003H0.750002H1.90735e-06L1.90735e-06 53.083H0.750002ZM0.750002 68.923H1.5V76.843H0.750002H1.90735e-06V68.923H0.750002ZM0.750002 84.763H1.5V92.683H0.750002H1.90735e-06V84.763H0.750002ZM0.750002 100.603H1.5L1.5 108.523H0.750002H1.90735e-06L1.90735e-06 100.603H0.750002ZM0.750002 116.443H1.5V124.363H0.750002H1.90735e-06V116.443H0.750002ZM0.750002 132.283H1.5V140.203H0.750002H1.90735e-06V132.283H0.750002ZM0.750002 148.123H1.5L1.5 156.043H0.750002H1.90735e-06L1.90735e-06 148.123H0.750002ZM0.750002 163.963H1.5L1.5 171.883H0.750002H1.90735e-06L1.90735e-06 163.963H0.750002ZM0.750002 179.803H1.5V187.723H0.750002H1.90735e-06V179.803H0.750002ZM0.750002 195.643H1.5V203.563H0.750002H1.90735e-06V195.643H0.750002ZM0.75 211.483H1.5L1.5 219.403H0.75H0L0 211.483H0.75ZM0.75 227.323H1.5V235.243H0.75H0V227.323H0.75ZM0.75 243.163H1.5V251.083H0.75H0V243.163H0.75ZM0.75 259.003H1.5L1.5 266.923H0.75H0L0 259.003H0.75ZM0.75 274.843H1.5L1.5 282.763H0.75H0L0 274.843H0.75ZM0.75 290.683H1.5V298.603H0.75H0V290.683H0.75ZM0.75 306.523H1.5V314.443H0.75H0V306.523H0.75ZM0.75 322.363H1.5L1.5 330.283H0.75H0L0 322.363H0.75ZM0.75 338.203H1.5V346.123H0.75H0V338.203H0.75ZM0.75 354.043H1.5V361.963H0.75H0V354.043H0.75ZM0.75 369.883H1.5L1.5 377.803H0.75H0L0 369.883H0.75ZM0.75 385.723H1.5L1.5 393.643H0.75H0L0 385.723H0.75ZM0.75 401.563H1.5V405.523H0.75H0V401.563H0.75ZM0.75 405.523H1.5C1.5 407.318 2.95507 408.773 4.75 408.773V409.523V410.273C2.12665 410.273 0 408.146 0 405.523H0.75ZM4.75 409.523V408.773H9.67207V409.523V410.273H4.75V409.523ZM19.5162 409.523V408.773H24.4383V409.523V410.273H19.5162V409.523ZM4.75003 5.52298L4.75003 4.77298L4.75003 5.52298ZM25.2803 4.99278C25.5732 5.28568 25.5732 5.76055 25.2803 6.05344L20.5073 10.8264C20.2144 11.1193 19.7396 11.1193 19.4467 10.8264C19.1538 10.5335 19.1538 10.0586 19.4467 9.76572L23.6893 5.5231L19.4467 1.28043C19.1538 0.987539 19.1538 0.512665 19.4467 0.219774C19.7396 -0.0731177 20.2145 -0.0731144 20.5074 0.219781L25.2803 4.99278ZM0.75 405.523H0H0.75ZM0.750002 9.52297H1.5H0.750002ZM24.75 5.52311L24.75 6.27311L19.75 6.27308L19.75 5.52308L19.75 4.77308L24.75 4.77311L24.75 5.52311ZM9.75002 5.52301L9.75002 6.27301L4.75002 6.27298L4.75003 5.52298L4.75003 4.77298L9.75003 4.77301L9.75002 5.52301ZM4.75003 5.52298L4.75002 6.27298C2.95509 6.27296 1.5 7.72804 1.5 9.52297H0.750002H1.90735e-06C1.90735e-06 6.89961 2.12667 4.77296 4.75003 4.77298L4.75003 5.52298ZM0.750002 9.52297H1.5V13.483H0.750002H1.90735e-06V9.52297H0.750002ZM0.750002 21.403H1.5V29.323H0.750002H1.90735e-06V21.403H0.750002ZM0.750002 37.243H1.5L1.5 45.163H0.750002H1.90735e-06L1.90735e-06 37.243H0.750002ZM0.750002 53.083H1.5L1.5 61.003H0.750002H1.90735e-06L1.90735e-06 53.083H0.750002ZM0.750002 68.923H1.5V76.843H0.750002H1.90735e-06V68.923H0.750002ZM0.750002 84.763H1.5V92.683H0.750002H1.90735e-06V84.763H0.750002ZM0.750002 100.603H1.5L1.5 108.523H0.750002H1.90735e-06L1.90735e-06 100.603H0.750002ZM0.750002 116.443H1.5V124.363H0.750002H1.90735e-06V116.443H0.750002ZM0.750002 132.283H1.5V140.203H0.750002H1.90735e-06V132.283H0.750002ZM0.750002 148.123H1.5L1.5 156.043H0.750002H1.90735e-06L1.90735e-06 148.123H0.750002ZM0.750002 163.963H1.5L1.5 171.883H0.750002H1.90735e-06L1.90735e-06 163.963H0.750002ZM0.750002 179.803H1.5V187.723H0.750002H1.90735e-06V179.803H0.750002ZM0.750002 195.643H1.5V203.563H0.750002H1.90735e-06V195.643H0.750002ZM0.75 211.483H1.5L1.5 219.403H0.75H0L0 211.483H0.75ZM0.75 227.323H1.5V235.243H0.75H0V227.323H0.75ZM0.75 243.163H1.5V251.083H0.75H0V243.163H0.75ZM0.75 259.003H1.5L1.5 266.923H0.75H0L0 259.003H0.75ZM0.75 274.843H1.5L1.5 282.763H0.75H0L0 274.843H0.75ZM0.75 290.683H1.5V298.603H0.75H0V290.683H0.75ZM0.75 306.523H1.5V314.443H0.75H0V306.523H0.75ZM0.75 322.363H1.5L1.5 330.283H0.75H0L0 322.363H0.75ZM0.75 338.203H1.5V346.123H0.75H0V338.203H0.75ZM0.75 354.043H1.5V361.963H0.75H0V354.043H0.75ZM0.75 369.883H1.5L1.5 377.803H0.75H0L0 369.883H0.75ZM0.75 385.723H1.5L1.5 393.643H0.75H0L0 385.723H0.75ZM0.75 401.563H1.5V405.523H0.75H0V401.563H0.75ZM0.75 405.523H1.5C1.5 407.318 2.95507 408.773 4.75 408.773V409.523V410.273C2.12665 410.273 0 408.146 0 405.523H0.75ZM4.75 409.523V408.773H9.67207V409.523V410.273H4.75V409.523ZM19.5162 409.523V408.773H24.4383V409.523V410.273H19.5162V409.523Z" fill="white"/>
</svg>