<svg width="23" height="26" viewBox="0 0 23 26" fill="none" xmlns="http://www.w3.org/2000/svg">
<path d="M11.2 -9.9659e-05C11.85 -9.9659e-05 12.4 0.5499 12.4 1.1999V1.6999C16.45 2.2499 19.6 5.7499 19.6 9.9999V10.6999C19.6 12.5999 20.1 14.4499 21.05 16.0999L22.15 17.9499C22.3 18.2499 22.4 18.5999 22.4 18.8999C22.4 19.9499 21.55 20.7999 20.5 20.7999H1.9C0.850002 20.7999 1.90735e-06 19.9499 1.90735e-06 18.8999C1.90735e-06 18.5999 0.100002 18.2499 0.250002 17.9499L1.35 16.0999C2.3 14.4499 2.8 12.5999 2.8 10.7499V9.9999C2.8 5.7499 5.95 2.2499 10 1.6999V1.1999C10 0.5499 10.55 -9.9659e-05 11.2 -9.9659e-05ZM19.6 18.3999L19 17.2999C17.8 15.2999 17.2 13.0499 17.2 10.7499V9.9999C17.2 6.6999 14.5 3.9999 11.2 3.9999C7.9 3.9999 5.2 6.6999 5.2 9.9999V10.7499C5.2 13.0499 4.6 15.2999 3.4 17.2999L2.8 18.3999H19.6ZM7.8 23.1999H14.6C14.1 24.5999 12.75 25.5999 11.2 25.5999C9.65 25.5999 8.3 24.5999 7.8 23.1999Z" fill="#171C26"/>
</svg>
