<svg width="346" height="346" viewBox="0 0 346 346" fill="none" xmlns="http://www.w3.org/2000/svg">
<g opacity="0.3">
<g filter="url(#filter0_f_2906_2358)">
<circle cx="172.707" cy="172.706" r="159.615" stroke="url(#paint0_linear_2906_2358)" stroke-width="0.769231"/>
</g>
<g filter="url(#filter1_f_2906_2358)">
<circle cx="172.707" cy="172.706" r="160" stroke="url(#paint1_linear_2906_2358)" stroke-width="2.33577"/>
</g>
<g filter="url(#filter2_df_2906_2358)">
<path d="M115.916 68.9299C141.497 67.5333 163.185 72.3321 184.264 87.6014C205.487 102.958 219.785 126.08 224.047 151.933C225.192 159.158 227.174 171.031 222.557 177.294C218.33 183.026 208.649 184.387 202.945 179.927C195.51 174.114 198.116 163.508 195.885 155.376C194.548 150.213 193.743 145.039 191.546 140.114C186.647 129.129 178.852 119.005 169.257 111.755C166.455 109.66 163.372 107.404 164.462 103.316C168.873 97.9689 176.258 105.503 179.828 108.696C195.013 122.277 205.385 143.09 206.337 163.5C206.513 167.271 205.966 172.301 210.203 174.091C212.62 175.112 215.488 171.45 215.88 169.315C217.455 155.674 211.993 137.283 205.787 125.862C191.792 99.7277 166.049 81.9541 136.658 78.1322C129.438 77.2014 122.205 78.4714 115.284 77.4212C111.537 76.8526 111.243 71.0535 115.916 68.9299Z" fill="#5BFCFB"/>
<path d="M122.708 145.021C123.091 144.972 123.476 144.937 123.862 144.918C130.446 144.551 136.56 147.02 141.332 151.313C151.481 160.444 148.259 169.552 150.159 181.393C150.669 184.566 153.591 190.477 153.778 193.906C152.975 196.029 150.114 198.364 147.275 197.093C146.04 196.541 145.663 195.986 144.837 194.831C138.051 185.333 144.612 158.947 130.899 155.302C99.8906 147.058 112.706 193.982 119.021 208.501C130.504 234.903 149.857 252.308 176.395 263.082C181.083 266.265 196.389 267.833 202.051 268.682C207.787 269.542 220.124 267.852 224.785 270.068C228.865 274.596 224.186 277.574 219.909 277.948C194.79 280.143 167.889 272.563 147.65 257.978C123.89 241.075 107.903 215.343 103.273 186.548C100.404 168.695 100.025 148.672 122.708 145.021Z" fill="#5BFCFB"/>
<path d="M213.24 63.3549C220.482 64.49 237.699 87.2313 241.814 93.7308C256.989 117.7 267.126 150.346 262.947 178.758C261.665 187.48 253.951 202.187 246.477 207.006C245.101 207.101 242.34 205.914 241.909 204.729C239.984 199.305 247.215 193.871 249.385 189.56C255.314 177.779 254.816 167.483 253.661 154.968C251.375 130.19 242.259 108.234 226.981 88.6944C224.505 85.5495 221.88 82.5241 219.116 79.6292C216.305 76.7175 211.808 72.7505 209.353 69.5498C207.384 66.9831 210.835 64.4866 213.24 63.3549Z" fill="#5BFCFB"/>
<path d="M274.608 182.748C283.12 184.174 279.564 191.388 277.325 196.593C262.238 231.671 222.525 248.829 186.707 235.748C174.43 231.265 166.162 224.878 157.323 215.484C154.579 212.819 152.32 207.369 155.424 204.264C158.419 202.877 161.291 205.96 163.036 208.106C190.377 241.746 243.353 237.623 265.081 200.259C267.809 195.568 270.709 185.982 274.462 182.868L274.608 182.748Z" fill="#5BFCFB"/>
<path d="M98.2061 135.755C100.589 135.501 103.771 136.186 104.398 138.931C105.013 141.623 101.805 144.713 100.097 146.631C94.7457 152.638 91.7403 159.685 91.6932 167.783C91.2003 200.389 105.025 232.523 128.442 255.128C132.404 258.952 130.909 260.617 127.436 263.673C123.654 266.053 111.557 250.11 109.55 247.511C94.7254 228.502 85.581 205.685 83.1732 181.696C82.5634 175.771 82.1614 168.794 82.9301 162.861C84.209 152.151 89.7078 142.394 98.2061 135.755Z" fill="#5BFCFB"/>
<path d="M123.127 164.412C123.509 164.374 123.891 164.344 124.274 164.321C125.874 164.217 128.674 164.698 129.007 166.019C129.699 169.69 130.037 173.729 130.445 177.448C133.754 207.579 153.179 233.362 181.447 244.519C185.727 246.209 196.69 247.191 197.005 253.028C196.705 254.821 195.308 255.923 194.007 257.243C191.743 257.998 186.386 255.497 183.941 254.792C167.874 250.156 152.81 239.752 142.102 227.006C130.777 213.411 123.556 196.872 121.282 179.323C120.66 174.496 119.029 167.805 123.127 164.412Z" fill="#5BFCFB"/>
<path d="M162.182 164.301C169.94 162.908 168.75 174.649 169.803 179.723C170.555 183.414 171.909 186.955 173.813 190.204C185.123 209.505 207.498 216.246 227.891 208.632C230.047 207.68 234.672 207.009 235.816 209.832C237.242 213.355 235.307 215.171 232.672 216.464C223.239 220.465 214.322 222.194 203.534 220.481C177.926 216.414 158.602 194.07 159.026 168.036C159.056 166.205 160.757 165.236 162.182 164.301Z" fill="#5BFCFB"/>
<path d="M128.94 106.943C132.713 107.061 135.658 107.394 139.35 108.267C155.422 112.117 169.34 122.129 178.105 136.144C183.199 144.446 186.419 153.292 186.938 163.056C187.186 167.711 188.617 170.623 183.854 173.368C182.136 173.208 179.836 173.108 179.032 171.344C177.354 167.664 177.875 161.167 177.061 157.259C175.743 150.931 172.184 143.384 168.491 138.205C161.834 128.801 152.327 121.791 141.378 118.21C136.273 116.497 118.529 115.59 128.94 106.943Z" fill="#5BFCFB"/>
<path d="M119.542 87.5836C129.941 86.0987 143.536 89.4202 153.472 92.639C155.98 93.4518 157.296 96.5501 155.986 98.946C155.776 99.3236 155.511 99.6673 155.199 99.9658C152.723 102.363 148.573 100.617 145.475 99.6728C131.781 95.4986 116.909 96.4165 103.151 100.124C95.9227 102.422 84.1632 109.574 77.7771 113.453C73.3195 112.174 72.1474 107.931 75.2877 105.122C85.4447 96.0384 105.898 88.0414 119.542 87.5836Z" fill="#5BFCFB"/>
<path d="M110.998 108.286C113.416 107.921 117.199 109.801 117.087 112.75C116.945 116.355 109.513 118.512 106.646 119.483C87.9524 125.816 74.7692 143.749 73.1313 163.31C72.9005 166.067 72.1404 169.017 70.1291 171.305C58.5039 174.605 64.9379 154.289 66.4998 149.384C72.8385 129.474 90.3593 112.934 110.998 108.286Z" fill="#5BFCFB"/>
<path d="M239.526 163.923C242.968 164.641 245.057 166.315 244.751 170.062C242.329 199.698 209.013 212.167 187.875 192.058C185.018 189.385 182.952 185.314 185.938 181.965C191.197 179.857 196.947 189.363 203.002 191.444C219.522 197.122 234.392 185.616 235.722 168.741C235.925 166.175 237.144 164.794 239.526 163.923Z" fill="#5BFCFB"/>
<path d="M161.034 55.5616C161.453 55.5243 162.632 55.4851 163.146 55.6442C181.405 61.4402 199.164 72.7288 212.077 86.895C214.725 89.8004 211.723 92.2656 209.44 93.7169C205.319 94.2938 202.349 89.6781 199.615 87.2306C189.849 78.4864 178.763 70.9789 166.406 66.4395C161.423 64.6094 152.508 60.6986 161.034 55.5616Z" fill="#5BFCFB"/>
<path d="M123.848 126.072C125.935 125.819 129.625 126.188 131.759 126.519C143.427 128.362 153.896 134.734 160.895 144.252C164.672 149.483 163.927 152.386 158.822 155.97C156.363 153.877 155.078 152.258 153.148 149.736C144.68 138.49 134.735 133.843 120.652 135.358C116.462 135.809 111.126 138.924 109.847 131.946C108.897 126.766 120.727 126.352 123.848 126.072Z" fill="#5BFCFB"/>
<path d="M218.711 100.558C222.077 100.233 223.996 101.462 225.847 104.403C234.351 117.918 242.243 135.462 242.988 151.63C243.056 153.105 241.519 154.573 240.47 155.37C238.703 155.734 237.79 155.791 236.29 154.83C234.197 152.166 230.073 132.942 227.5 126.701C224.744 120.019 218.147 110.784 216.182 104.146C215.911 103.231 217.859 101.358 218.711 100.558Z" fill="#5BFCFB"/>
<path d="M68.2541 183.747C69.5068 183.767 72.9043 184.734 73.2072 185.883C76.2682 197.493 77.0129 208.535 82.4737 219.67C84.738 224.287 84.8322 227.474 80.2469 230.228C80.0215 230.219 79.796 230.204 79.5715 230.184C78.2515 230.057 77.7752 229.812 76.8622 228.794C72.1343 223.524 64.0929 192.519 64.7268 186.906C65.3583 185.531 66.9703 184.637 68.2541 183.747Z" fill="#5BFCFB"/>
<path d="M142.68 268.887C144.658 268.835 145.511 268.859 147.199 269.898C154.414 274.343 162.102 277.694 169.726 281.344C174.122 283.448 173.822 287.222 170.002 289.88C163.994 290.106 147.201 280.875 142.055 277.055C138.892 274.707 140.395 271.343 142.68 268.887Z" fill="#5BFCFB"/>
<path d="M240.813 245.004C241.495 245.087 242.976 245.342 243.424 245.84C252.774 256.223 221.32 258.92 216.05 259.222C211.562 259.849 210.369 251.559 214.049 250.941C223.178 249.41 231.868 247.386 240.813 245.004Z" fill="#5BFCFB"/>
<path d="M275.693 139.846C284.541 140.516 281.93 160.975 282.709 167.481C283.138 171.066 281.794 172.045 278.948 173.433C277.695 173.214 275.064 172.632 274.721 171.663C273.485 168.168 272.051 145.146 272.323 142.745C272.969 141.321 274.35 140.676 275.693 139.846Z" fill="#5BFCFB"/>
<path d="M88.5872 239.487C91.5768 239.696 94.8198 242.947 96.2983 245.487C99.0973 250.293 100.583 253.427 95.2178 256.787C91.7497 256.872 79.2808 243.631 88.5872 239.487Z" fill="#5BFCFB"/>
<path d="M263.288 232.279C263.412 232.312 263.535 232.346 263.658 232.383C265.237 232.853 266.696 233.77 267.458 235.284C267.911 236.184 267.967 237.233 267.611 238.176C266.343 241.585 261.701 244.162 258.633 245.578C249.272 240.858 257.567 234.218 263.288 232.279Z" fill="#5BFCFB"/>
<path d="M267.94 113.666C275.432 113.131 277.857 122.626 273.317 127.383C267.021 128.923 265.217 121.81 265.554 117.002C265.665 115.426 266.807 114.606 267.94 113.666Z" fill="#5BFCFB"/>
</g>
</g>
<defs>
<filter id="filter0_f_2906_2358" x="10.784" y="10.7832" width="323.846" height="323.846" filterUnits="userSpaceOnUse" color-interpolation-filters="sRGB">
<feFlood flood-opacity="0" result="BackgroundImageFix"/>
<feBlend mode="normal" in="SourceGraphic" in2="BackgroundImageFix" result="shape"/>
<feGaussianBlur stdDeviation="0.961538" result="effect1_foregroundBlur_2906_2358"/>
</filter>
<filter id="filter1_f_2906_2358" x="0.000601768" y="-8.58307e-06" width="345.413" height="345.413" filterUnits="userSpaceOnUse" color-interpolation-filters="sRGB">
<feFlood flood-opacity="0" result="BackgroundImageFix"/>
<feBlend mode="normal" in="SourceGraphic" in2="BackgroundImageFix" result="shape"/>
<feGaussianBlur stdDeviation="5.76923" result="effect1_foregroundBlur_2906_2358"/>
</filter>
<filter id="filter2_df_2906_2358" x="39.8809" y="32.0928" width="266.34" height="281.227" filterUnits="userSpaceOnUse" color-interpolation-filters="sRGB">
<feFlood flood-opacity="0" result="BackgroundImageFix"/>
<feColorMatrix in="SourceAlpha" type="matrix" values="0 0 0 0 0 0 0 0 0 0 0 0 0 0 0 0 0 0 127 0" result="hardAlpha"/>
<feOffset/>
<feGaussianBlur stdDeviation="11.7178"/>
<feComposite in2="hardAlpha" operator="out"/>
<feColorMatrix type="matrix" values="0 0 0 0 0.356863 0 0 0 0 0.988235 0 0 0 0 0.984314 0 0 0 0.5 0"/>
<feBlend mode="normal" in2="BackgroundImageFix" result="effect1_dropShadow_2906_2358"/>
<feBlend mode="normal" in="SourceGraphic" in2="effect1_dropShadow_2906_2358" result="shape"/>
<feGaussianBlur stdDeviation="4.10122" result="effect2_foregroundBlur_2906_2358"/>
</filter>
<linearGradient id="paint0_linear_2906_2358" x1="12.707" y1="12.7063" x2="172.707" y2="332.706" gradientUnits="userSpaceOnUse">
<stop stop-color="#5BFCFB"/>
<stop offset="1" stop-color="#5BFCFB" stop-opacity="0"/>
</linearGradient>
<linearGradient id="paint1_linear_2906_2358" x1="12.707" y1="12.7063" x2="172.707" y2="332.706" gradientUnits="userSpaceOnUse">
<stop stop-color="#5BFCFB"/>
<stop offset="1" stop-color="#5BFCFB" stop-opacity="0"/>
</linearGradient>
</defs>
</svg>
