<svg width="48" height="51" viewBox="0 0 48 51" fill="none" xmlns="http://www.w3.org/2000/svg">
<path d="M21 0H30V18H31.6875C30.2812 18.75 29.1562 19.7812 28.125 21H21V18H27V3H21V0ZM22.5 27V30H21V45H22.5V48H18V27H22.5ZM0 27H9V45H15V48H0V45H6V30H0V27ZM1.5 0H18V21H0V0H1.5ZM3 18H15V3H3V18ZM37.5 24C35.0625 24 33 26.0625 33 28.5V33H42V28.5C42 26.0625 40.0312 24 37.5 24ZM30 28.5C30 24.375 33.375 21 37.5 21C41.625 21 45 24.375 45 28.5V33H48V51H27V33H30V28.5ZM30 36V48H45V36H30Z" fill="#5BFCFB"/>
</svg>
