<svg width="18" height="21" viewBox="0 0 18 21" fill="none" xmlns="http://www.w3.org/2000/svg">
<path d="M12.8258 0.33745C13.2758 0.674951 13.4258 1.23745 13.2383 1.76245L10.2758 9.11245H15.7133C16.2383 9.11245 16.6883 9.41245 16.8383 9.89995C17.0258 10.3875 16.8758 10.9125 16.5008 11.25L5.70078 20.25C5.25078 20.5875 4.65078 20.625 4.20078 20.2875C3.75078 19.95 3.60078 19.3875 3.78828 18.8625L6.75078 11.5125H1.31328C0.825781 11.5125 0.375781 11.2125 0.188281 10.725C0.000781246 10.2375 0.150781 9.71245 0.563281 9.37495L11.3633 0.37495C11.7758 0.0374505 12.3758 -4.9524e-05 12.8258 0.33745Z" fill="#050B16"/>
</svg>
