<svg width="19" height="20" viewBox="0 0 19 20" fill="none" xmlns="http://www.w3.org/2000/svg">
<path d="M4.19922 2.10005C4.19922 0.937548 5.13672 4.81606e-05 6.29922 4.81606e-05H7.19922C7.87422 4.81606e-05 8.39922 0.525048 8.39922 1.20005V18C8.39922 18.675 7.87422 19.2 7.19922 19.2H5.99922C4.87422 19.2 3.93672 18.45 3.67422 17.4C3.63672 17.4 3.63672 17.4 3.59922 17.4C1.94922 17.4 0.599219 16.05 0.599219 14.4C0.599219 13.725 0.824219 13.0875 1.19922 12.6C0.486719 12.0375 -0.000781238 11.175 -0.000781238 10.2C-0.000781238 9.03755 0.674219 8.02505 1.61172 7.53755C1.34922 7.08755 1.19922 6.56255 1.19922 6.00005C1.19922 4.35005 2.54922 3.00005 4.19922 3.00005V2.10005ZM14.3992 2.10005V3.00005C16.0492 3.00005 17.3992 4.35005 17.3992 6.00005C17.3992 6.56255 17.2492 7.08755 16.9867 7.53755C17.9617 8.02505 18.5992 9.03755 18.5992 10.2C18.5992 11.175 18.1117 12.0375 17.3992 12.6C17.7742 13.0875 17.9992 13.725 17.9992 14.4C17.9992 16.05 16.6492 17.4 14.9992 17.4C14.9617 17.4 14.9617 17.4 14.9242 17.4C14.6617 18.45 13.7242 19.2 12.5992 19.2H11.3992C10.7242 19.2 10.1992 18.675 10.1992 18V1.20005C10.1992 0.525048 10.7242 4.81606e-05 11.3992 4.81606e-05H12.2992C13.4617 4.81606e-05 14.3992 0.937548 14.3992 2.10005Z" fill="#050B16"/>
</svg>
