<svg width="49" height="49" viewBox="0 0 49 49" fill="none" xmlns="http://www.w3.org/2000/svg">
<path d="M33 3H3V45H12V33H16.5C16.5938 34.0312 16.6875 35.0625 16.9688 36H15V45H22.9688C25.0312 46.5 27.375 47.4375 30 47.8125V48H0V0H36V16.9688C35.0625 16.6875 34.0312 16.5938 33 16.5V3ZM25.5 10.5V15H21V10.5H25.5ZM10.5 10.5H15V15H10.5V10.5ZM15 21V25.5H10.5V21H15ZM32.25 40.5C36.8438 40.5 40.5 36.8438 40.5 32.25C40.5 27.6562 36.8438 24 32.25 24C27.6562 24 24 27.6562 24 32.25C24 36.8438 27.6562 40.5 32.25 40.5ZM32.25 43.5C26.0625 43.5 21 38.4375 21 32.25C21 26.0625 26.0625 21 32.25 21C38.4375 21 43.5 26.0625 43.5 32.25C43.5 34.875 42.6562 37.2188 41.25 39.0938L47.5312 45.4688L48.6562 46.5L46.5 48.6562L45.4688 47.5312L39.0938 41.25C37.2188 42.6562 34.875 43.5 32.25 43.5Z" fill="#5BFCFB"/>
</svg>
