<svg width="32" height="26" viewBox="0 0 32 26" fill="none" xmlns="http://www.w3.org/2000/svg">
<path d="M14.4 3.1999C14.4 3.8999 14.2 4.4999 13.8 5.0499L15.3 8.1499C15.75 8.0499 16.3 7.9999 16.8 7.9999C18.6 7.9999 20.25 8.6499 21.5 9.7499L25.6 6.7499C25.6 6.6499 25.6 6.4999 25.6 6.3999C25.6 4.6499 27.05 3.1999 28.8 3.1999C30.55 3.1999 32 4.6499 32 6.3999C32 8.1499 30.55 9.5999 28.8 9.5999C28.35 9.5999 27.9 9.4999 27.5 9.3499L23.4 12.3499C23.8 13.1999 24 14.1999 24 15.1999C24 15.9999 23.9 16.7499 23.65 17.4499L27.25 19.5999C27.7 19.3499 28.25 19.1999 28.8 19.1999C30.55 19.1999 32 20.6499 32 22.3999C32 24.1499 30.55 25.5999 28.8 25.5999C27.05 25.5999 25.6 24.1499 25.6 22.3999V22.3499L22 20.1999C20.7 21.5499 18.85 22.3999 16.8 22.3999C13.4 22.3999 10.5 19.9999 9.8 16.7999H6C5.4 17.7499 4.4 18.3999 3.2 18.3999C1.45 18.3999 0 16.9499 0 15.1999C0 13.4499 1.45 11.9999 3.2 11.9999C4.4 11.9999 5.45 12.6499 6 13.5999H9.8C10.15 11.9499 11.1 10.4999 12.4 9.4999L10.95 6.3999C9.3 6.2499 8 4.8999 8 3.1999C8 1.4499 9.45 -9.9659e-05 11.2 -9.9659e-05C12.95 -9.9659e-05 14.4 1.4499 14.4 3.1999ZM16.8 17.5999C18.15 17.5999 19.2 16.5499 19.2 15.1999C19.2 13.8499 18.15 12.7999 16.8 12.7999C15.45 12.7999 14.4 13.8499 14.4 15.1999C14.4 16.5499 15.45 17.5999 16.8 17.5999Z" fill="#050B16"/>
</svg>
