<svg width="32" height="26" viewBox="0 0 32 26" fill="none" xmlns="http://www.w3.org/2000/svg">
<path d="M11.1998 1.9999C10.5498 1.9999 9.99984 2.5499 9.99984 3.1999C9.99984 3.8499 10.5498 4.3999 11.1998 4.3999C11.8498 4.3999 12.3998 3.8499 12.3998 3.1999C12.3998 2.5499 11.8498 1.9999 11.1998 1.9999ZM11.1998 6.3999C9.44984 6.3999 7.99984 4.9499 7.99984 3.1999C7.99984 1.4499 9.44984 -9.9659e-05 11.1998 -9.9659e-05C12.9498 -9.9659e-05 14.3998 1.4499 14.3998 3.1999C14.3998 4.0499 14.0998 4.7999 13.5498 5.3999L14.8998 8.2499C15.4998 8.0999 16.1498 7.9999 16.7998 7.9999C18.7498 7.9999 20.5498 8.7499 21.7998 10.0499L25.6998 7.1999C25.6498 6.9499 25.5998 6.6499 25.5998 6.3999C25.5998 4.6499 27.0498 3.1999 28.7998 3.1999C30.5498 3.1999 31.9998 4.6499 31.9998 6.3999C31.9998 8.1499 30.5498 9.5999 28.7998 9.5999C28.1998 9.5999 27.5998 9.4499 27.0998 9.0999L23.2498 11.9499C23.7498 12.9499 23.9998 14.0499 23.9998 15.1999C23.9998 16.0999 23.8498 16.9999 23.4998 17.7999L26.8998 19.8499C27.3998 19.4499 28.0998 19.1999 28.7998 19.1999C30.5498 19.1999 31.9998 20.6499 31.9998 22.3999C31.9998 24.1499 30.5498 25.5999 28.7998 25.5999C27.0498 25.5999 25.5998 24.1499 25.5998 22.3999C25.5998 22.2499 25.5998 22.0499 25.6498 21.8999L22.2498 19.8999C20.9498 21.4499 18.9998 22.3999 16.7998 22.3999C13.2498 22.3999 10.2498 19.7999 9.69984 16.3999H6.14984C5.69984 17.5999 4.54984 18.3999 3.19984 18.3999C1.44984 18.3999 -0.000164032 16.9499 -0.000164032 15.1999C-0.000164032 13.4499 1.44984 11.9999 3.19984 11.9999C4.54984 11.9999 5.69984 12.8499 6.14984 13.9999H9.69984C10.0498 12.0499 11.1498 10.3499 12.6998 9.2999L11.3498 6.3999C11.2998 6.3999 11.2498 6.3999 11.1998 6.3999ZM28.7998 5.1999C28.1498 5.1999 27.5998 5.7499 27.5998 6.3999C27.5998 7.0499 28.1498 7.5999 28.7998 7.5999C29.4498 7.5999 29.9998 7.0499 29.9998 6.3999C29.9998 5.7499 29.4498 5.1999 28.7998 5.1999ZM27.5998 22.3999C27.5998 23.0499 28.1498 23.5999 28.7998 23.5999C29.4498 23.5999 29.9998 23.0499 29.9998 22.3999C29.9998 21.7499 29.4498 21.1999 28.7998 21.1999C28.1498 21.1999 27.5998 21.7499 27.5998 22.3999ZM3.19984 13.9999C2.54984 13.9999 1.99984 14.5499 1.99984 15.1999C1.99984 15.8499 2.54984 16.3999 3.19984 16.3999C3.84984 16.3999 4.39984 15.8499 4.39984 15.1999C4.39984 14.5499 3.84984 13.9999 3.19984 13.9999ZM16.7998 10.3999C14.1498 10.3999 11.9998 12.5499 11.9998 15.1999C11.9998 17.8499 14.1498 19.9999 16.7998 19.9999C19.4498 19.9999 21.5998 17.8499 21.5998 15.1999C21.5998 12.5499 19.4498 10.3999 16.7998 10.3999Z" fill="#171C26"/>
</svg>
