<svg width="16" height="16" viewBox="0 0 16 16" fill="none" xmlns="http://www.w3.org/2000/svg">
<path d="M8 1.5C4.40625 1.5 1.5 4.40625 1.5 8C1.5 11.5938 4.40625 14.5 8 14.5C11.5938 14.5 14.5 11.5938 14.5 8C14.5 4.40625 11.5938 1.5 8 1.5ZM8 16C3.59375 16 0 12.4062 0 8C0 3.59375 3.59375 0 8 0C12.4062 0 16 3.59375 16 8C16 12.4062 12.4062 16 8 16ZM11.0312 6L10.625 6.65625L8.125 10.6562L7.90625 11H7.125L6.90625 10.7188C5.71875 9.125 5.0625 8.28125 4.9375 8.09375L6.15625 7.21875C6.375 7.53125 6.8125 8.09375 7.4375 8.9375C8.96875 6.46875 9.75 5.25 9.75 5.21875L11.0312 6Z" fill="#5BFCFB"/>
</svg>
