<svg width="16" height="16" viewBox="0 0 16 16" fill="none" xmlns="http://www.w3.org/2000/svg">
<path d="M8 1C4.125 1 1 4.125 1 8C1 11.875 4.125 15 8 15C11.875 15 15 11.875 15 8C15 4.125 11.875 1 8 1ZM8 16C3.59375 16 0 12.4062 0 8C0 3.59375 3.59375 0 8 0C12.4062 0 16 3.59375 16 8C16 12.4062 12.4062 16 8 16ZM4.3125 10.875L5.75 5.75C9.84375 4.59375 11.9062 4.03125 12 4C11.9688 4.09375 11.4062 6.15625 10.25 10.25C6.15625 11.4062 4.09375 11.9688 4 12L4.3125 10.875ZM5.4375 10.5625L9.4375 9.4375L10.5625 5.4375L6.5625 6.5625L5.4375 10.5625ZM8 8.75C7.59375 8.75 7.25 8.40625 7.25 8C7.25 7.59375 7.59375 7.25 8 7.25C8.40625 7.25 8.75 7.59375 8.75 8C8.75 8.40625 8.40625 8.75 8 8.75Z" fill="#5BFCFB"/>
</svg>
