<svg width="20" height="10" viewBox="0 0 20 10" fill="none" xmlns="http://www.w3.org/2000/svg">
<path d="M0 4.3125C0 1.9375 1.9375 0 4.3125 0C5.53125 0 6.6875 0.53125 7.5 1.4375L10 4.25L12.5 1.4375C13.3125 0.53125 14.4688 0 15.7188 0C18.0938 0 20 1.9375 20 4.3125V5.71875C20 8.09375 18.0938 10 15.7188 10C14.4688 10 13.3125 9.46875 12.5 8.5625L10 5.75L7.5 8.5625C6.6875 9.46875 5.53125 10 4.3125 10C1.9375 10 0 8.09375 0 5.71875V4.28125V4.3125ZM9.34375 5L6.75 2.09375C6.125 1.40625 5.25 1 4.3125 1C2.46875 1 1 2.46875 1 4.3125V5.71875C1 7.53125 2.46875 9 4.3125 9C5.25 9 6.125 8.59375 6.75 7.90625L9.34375 5ZM10.6562 5L13.25 7.90625C13.875 8.59375 14.75 9 15.7188 9C17.5312 9 19 7.53125 19 5.71875V4.28125C19 2.46875 17.5312 1 15.7188 1C14.75 1 13.875 1.40625 13.25 2.09375L10.6562 5Z" fill="#5BFCFB"/>
</svg>
