<svg width="51" height="48" viewBox="0 0 51 48" fill="none" xmlns="http://www.w3.org/2000/svg">
<path d="M25.5 20.7188L43.9688 12L25.5 3.28125L7.03125 12L25.5 20.7188ZM3.5625 13.6875L0 12L3.5625 10.3125L25.5 0L47.4375 10.3125L51 12L47.4375 13.6875L25.5 24L3.5625 13.6875ZM7.5 20.4375V20.5312L10.9688 22.125L7.03125 24L25.5 32.7188L43.9688 24L40.0312 22.125L43.5 20.5312C46.2188 21.75 48.75 22.9688 51 24L47.4375 25.6875L25.5 36L3.5625 25.6875L0 24C2.25 22.9688 4.78125 21.75 7.5 20.4375ZM3.5625 34.3125L7.5 32.5312L10.9688 34.125L7.03125 36L25.5 44.7188L43.9688 36L40.0312 34.125L43.5 32.5312C46.2188 33.75 48.75 34.9688 51 36L47.4375 37.6875L25.5 48L3.5625 37.6875L0 36L3.5625 34.3125Z" fill="#5BFCFB"/>
</svg>
