<svg width="16" height="16" viewBox="0 0 16 16" fill="none" xmlns="http://www.w3.org/2000/svg">
<path d="M10.0938 5.1875C9.5 4.75 8.78125 4.5 8 4.5C6.0625 4.5 4.5 6.0625 4.5 8C4.5 9.9375 6.0625 11.5 8 11.5C9.9375 11.5 11.5 9.9375 11.5 8H12.5C12.5 10.5 10.5 12.5 8 12.5C5.53125 12.5 3.5 10.5 3.5 8C3.5 5.53125 5.53125 3.5 8 3.5C9.0625 3.5 10.0312 3.875 10.8125 4.5L12.5938 2.71875C11.3438 1.65625 9.75 1 8 1C4.125 1 1 4.125 1 8C1 11.875 4.125 15 8 15C11.875 15 15 11.875 15 8H16C16 12.4062 12.4062 16 8 16C3.59375 16 0 12.4062 0 8C0 3.59375 3.59375 0 8 0C10.0312 0 11.875 0.75 13.2812 2C14.375 0.9375 14.9375 0.375 15 0.28125L15.7188 1L15.3438 1.34375L8.34375 8.34375L8 8.71875L7.28125 8L7.65625 7.65625L10.0938 5.1875Z" fill="#5BFCFB"/>
</svg>
