<svg width="19" height="19" viewBox="0 0 19 19" fill="none" xmlns="http://www.w3.org/2000/svg">
<path d="M5.40156 11.0625H1.53906C0.601562 11.0625 0.00156248 10.05 0.489062 9.26255L2.47656 5.92505C2.81406 5.40005 3.37656 5.06255 4.01406 5.06255H7.57656C10.4266 0.225048 14.7016 4.81978e-05 17.5516 0.412548C18.0391 0.487548 18.4141 0.862548 18.4516 1.31255C18.8641 4.16255 18.6391 8.43755 13.8016 11.2875V14.85C13.8016 15.4875 13.4641 16.05 12.9391 16.3875L9.63906 18.375C8.81406 18.8625 7.80156 18.2625 7.80156 17.3625V13.4625C7.80156 12.15 6.71406 11.0625 5.40156 11.0625ZM15.6016 5.06255C15.6016 4.05005 14.8141 3.26255 13.8016 3.26255C12.7891 3.26255 12.0016 4.05005 12.0016 5.06255C12.0016 6.07505 12.7891 6.86255 13.8016 6.86255C14.8141 6.86255 15.6016 6.07505 15.6016 5.06255Z" fill="#050B16"/>
</svg>
