<svg width="26" height="26" viewBox="0 0 26 26" fill="none" xmlns="http://www.w3.org/2000/svg">
<path d="M21.9501 7.7999C22.8001 6.3499 23.2001 5.2999 23.2001 4.7999C23.2001 3.4999 22.1501 2.3999 20.8001 2.3999C19.5001 2.3999 18.4001 3.4999 18.4001 4.7999C18.4001 5.2999 18.8001 6.3499 19.6501 7.7999C20.0501 8.3499 20.4501 8.8999 20.8001 9.3999C21.2001 8.8999 21.5501 8.3499 21.9501 7.7999ZM21.3501 12.5499C21.2001 12.7499 20.9001 12.8499 20.6501 12.7999H16.4001C15.3001 12.7999 14.4001 13.6999 14.4001 14.7999C14.4001 15.8999 15.3001 16.7999 16.4001 16.7999H21.2001C23.6501 16.7999 25.6001 18.7499 25.6001 21.1999C25.6001 23.6499 23.6501 25.5999 21.2001 25.5999H7.00013C7.40013 25.0999 7.95013 24.4499 8.50013 23.7499C8.60013 23.5999 8.75013 23.3999 8.90013 23.1999H21.2001C22.3001 23.1999 23.2001 22.2999 23.2001 21.1999C23.2001 20.0999 22.3001 19.1999 21.2001 19.1999H16.4001C13.9501 19.1999 12.0001 17.2499 12.0001 14.7999C12.0001 12.3499 13.9501 10.3999 16.4001 10.3999H18.5501C17.3001 8.6499 16.0001 6.4499 16.0001 4.7999C16.0001 2.1499 18.1501 -9.9659e-05 20.8001 -9.9659e-05C23.4501 -9.9659e-05 25.6001 2.1499 25.6001 4.7999C25.6001 7.2999 22.6501 11.0499 21.3501 12.5499ZM5.95013 20.3999C6.85013 19.0999 7.20013 18.0999 7.20013 17.5999C7.20013 16.2999 6.15013 15.1999 4.80013 15.1999C3.50013 15.1999 2.40013 16.2999 2.40013 17.5999C2.40013 18.0999 2.75013 19.0999 3.65013 20.3999C4.00013 20.9499 4.40013 21.4999 4.80013 21.9999C5.20013 21.4999 5.60013 20.9499 5.95013 20.3999ZM6.90013 23.1999C6.55013 23.6499 6.20013 24.0499 5.90013 24.3999C5.70013 24.5999 5.55013 24.7999 5.40013 24.9499C5.40013 24.9499 5.40013 24.9999 5.35013 24.9999C5.05013 25.3499 4.55013 25.3499 4.25013 24.9999C3.00013 23.6499 0.0001297 20.1499 0.0001297 17.5999C0.0001297 14.9499 2.15013 12.7999 4.80013 12.7999C7.45013 12.7999 9.60013 14.9499 9.60013 17.5999C9.60013 19.3499 8.20013 21.5499 6.90013 23.1999Z" fill="#171C26"/>
</svg>
