<svg width="50" height="45" viewBox="0 0 50 45" fill="none" xmlns="http://www.w3.org/2000/svg">
<path d="M30 0C37.5 0 44.25 3 49.125 7.875L46.9688 10.0312C42.6562 5.71875 36.6562 3 30 3C23.4375 3 17.4375 5.71875 13.0312 10.0312L10.9688 7.875C15.8438 3 22.5938 0 30 0ZM30 9C34.9688 9 39.4688 11.0625 42.75 14.25L40.5938 16.4062C37.875 13.6875 34.125 12 30 12C25.875 12 22.125 13.6875 19.4062 16.4062L17.25 14.25C20.5312 11.0625 25.0312 9 30 9ZM31.5 21V27H48V45H0V27H28.5V21H31.5ZM3 30V42H45V30H3ZM12 36C12 37.2188 10.9688 38.25 9.75 38.25C8.53125 38.25 7.5 37.2188 7.5 36C7.5 34.7812 8.53125 33.75 9.75 33.75C10.9688 33.75 12 34.7812 12 36ZM18.75 38.25C17.5312 38.25 16.5 37.2188 16.5 36C16.5 34.7812 17.5312 33.75 18.75 33.75C19.9688 33.75 21 34.7812 21 36C21 37.2188 19.9688 38.25 18.75 38.25Z" fill="#5BFCFB"/>
</svg>
