<svg width="25" height="23" viewBox="0 0 25 23" fill="none" xmlns="http://www.w3.org/2000/svg">
<path d="M15 0C18.75 0 22.125 1.5 24.5625 3.9375L22.9688 5.53125C20.9062 3.51562 18.0938 2.25 15 2.25C11.9062 2.25 9.09375 3.51562 7.03125 5.53125L5.48438 3.9375C7.92188 1.5 11.2969 0 15 0ZM15 5.25C17.2969 5.25 19.3594 6.1875 20.8594 7.6875L19.2656 9.23438C18.1875 8.15625 16.6875 7.5 15 7.5C13.3594 7.5 11.8594 8.15625 10.7812 9.23438L9.1875 7.6875C10.6875 6.1875 12.75 5.25 15 5.25ZM16.125 10.5V15H24V22.5H0V15H13.875V10.5H16.125ZM4.125 17.625C3.51562 17.625 3 18.1406 3 18.75C3 19.3594 3.51562 19.875 4.125 19.875C4.73438 19.875 5.25 19.3594 5.25 18.75C5.25 18.1406 4.73438 17.625 4.125 17.625ZM7.5 18.75C7.5 19.3594 8.01562 19.875 8.625 19.875C9.23438 19.875 9.75 19.3594 9.75 18.75C9.75 18.1406 9.23438 17.625 8.625 17.625C8.01562 17.625 7.5 18.1406 7.5 18.75Z" fill="#050B16"/>
</svg>
