<svg width="18" height="19" viewBox="0 0 18 19" fill="none" xmlns="http://www.w3.org/2000/svg">
<path d="M1.85938 4.67578C1.82227 6.30859 2.11914 8.64648 3.12109 10.9473C4.16016 13.3594 5.97852 15.6973 8.98438 17.0703C11.9902 15.6973 13.8086 13.3594 14.8477 10.9473C15.8496 8.64648 16.1465 6.30859 16.1094 4.67578L8.98438 1.92969L1.85938 4.67578ZM17.8906 4.19336H17.8535C17.9648 6.04883 17.7051 8.86914 16.4805 11.6523C15.2559 14.4355 13.1035 17.2188 9.4668 18.8145L8.98438 19L8.50195 18.8145C4.86523 17.2188 2.71289 14.4355 1.48828 11.6523C0.300781 8.86914 0.00390625 6.04883 0.115234 4.19336L0.152344 3.45117L0.857422 3.1543L8.57617 0.185547L8.98438 0L9.42969 0.185547L17.1113 3.1543L17.8164 3.45117L17.8906 4.19336ZM12.584 6.53125L12.1016 7.31055L9.13281 12.0605L8.87305 12.4688H7.94531L7.68555 12.1348C6.27539 10.2422 5.49609 9.24023 5.34766 9.01758L6.79492 7.97852C7.05469 8.34961 7.57422 9.01758 8.31641 10.0195C10.1348 7.08789 11.0625 5.64062 11.0625 5.60352L12.584 6.53125Z" fill="#5BFCFB"/>
</svg>
