<svg width="16" height="16" viewBox="0 0 16 16" fill="none" xmlns="http://www.w3.org/2000/svg">
<path d="M7.5625 1.625L1.5625 3.9375C1.53125 5.3125 1.78125 7.28125 2.625 9.21875C3.5 11.25 5.03125 13.2188 7.5625 14.375C10.0938 13.2188 11.625 11.25 12.5 9.21875C13.3438 7.28125 13.5938 5.3125 13.5625 3.9375L7.5625 1.625ZM15 2.90625L15.0625 3.53125C15.125 5.09375 14.9062 7.46875 13.875 9.8125C12.875 12.1562 11.0312 14.5 7.96875 15.8438L7.5625 16L7.15625 15.8438C4.09375 14.5 2.28125 12.1562 1.25 9.8125C0.25 7.46875 0 5.09375 0.09375 3.53125L0.125 2.90625L0.71875 2.65625L7.21875 0.15625L7.5625 0L7.9375 0.15625L14.4062 2.65625L15 2.90625Z" fill="#5BFCFB"/>
</svg>
