<svg width="26" height="24" viewBox="0 0 26 24" fill="none" xmlns="http://www.w3.org/2000/svg">
<path d="M1.6 2.4001H5.95C6.55 1.0001 7.95 9.57251e-05 9.6 9.57251e-05C11.25 9.57251e-05 12.65 1.0001 13.25 2.4001H24C24.9 2.4001 25.6 3.1001 25.6 4.0001C25.6 4.9001 24.9 5.6001 24 5.6001H13.25C12.65 7.0001 11.25 8.0001 9.6 8.0001C7.95 8.0001 6.55 7.0001 5.95 5.6001H1.6C0.7 5.6001 0 4.9001 0 4.0001C0 3.1001 0.7 2.4001 1.6 2.4001ZM1.6 10.4001H13.95C14.55 9.0001 15.95 8.0001 17.6 8.0001C19.25 8.0001 20.65 9.0001 21.25 10.4001H24C24.9 10.4001 25.6 11.1001 25.6 12.0001C25.6 12.9001 24.9 13.6001 24 13.6001H21.25C20.65 15.0001 19.25 16.0001 17.6 16.0001C15.95 16.0001 14.55 15.0001 13.95 13.6001H1.6C0.7 13.6001 0 12.9001 0 12.0001C0 11.1001 0.7 10.4001 1.6 10.4001ZM1.6 18.4001H4.35C4.95 17.0001 6.35 16.0001 8 16.0001C9.65 16.0001 11.05 17.0001 11.65 18.4001H24C24.9 18.4001 25.6 19.1001 25.6 20.0001C25.6 20.9001 24.9 21.6001 24 21.6001H11.65C11.05 23.0001 9.65 24.0001 8 24.0001C6.35 24.0001 4.95 23.0001 4.35 21.6001H1.6C0.7 21.6001 0 20.9001 0 20.0001C0 19.1001 0.7 18.4001 1.6 18.4001Z" fill="currentColor"/>
</svg>
