<svg width="26" height="26" viewBox="0 0 26 26" fill="none" xmlns="http://www.w3.org/2000/svg">
<path d="M3.3 11.4499C3.15 12.2999 2.35 12.8999 1.5 12.7999C0.6 12.6499 0 11.8499 0.15 10.9999C1 4.7499 6.35 -9.9659e-05 12.8 -9.9659e-05C16.35 -9.9659e-05 19.55 1.4499 21.85 3.7499L22.4 4.2499V1.5999C22.4 0.6999 23.1 -9.9659e-05 24 -9.9659e-05C24.9 -9.9659e-05 25.6 0.6999 25.6 1.5999V7.9999C25.6 8.8999 24.9 9.5999 24 9.5999H17.6C16.7 9.5999 16 8.8999 16 7.9999C16 7.0999 16.7 6.3999 17.6 6.3999H20L19.6 6.0499V5.9999C17.85 4.2999 15.45 3.1999 12.8 3.1999C7.95 3.1999 3.95 6.7999 3.3 11.4499ZM25.45 14.6499C24.6 20.8499 19.25 25.5999 12.8 25.5999C9.3 25.5999 6.1 24.1499 3.75 21.8499L3.25 21.3499V23.9499C3.25 24.7999 2.55 25.5499 1.65 25.5499C0.8 25.5499 0.05 24.8499 0.05 23.9499L0 17.5999C0 17.1999 0.15 16.7999 0.45 16.4999C0.75 16.1499 1.2 15.9999 1.6 15.9999H8C8.9 15.9999 9.6 16.6999 9.6 17.5999C9.6 18.4999 8.9 19.1999 8 19.1999H5.6L6 19.5499V19.5999C7.75 21.2999 10.15 22.3999 12.8 22.3999C17.65 22.3999 21.65 18.7999 22.3 14.1499C22.45 13.2999 23.25 12.6999 24.1 12.7999C25 12.9499 25.6 13.7499 25.45 14.6499Z" fill="#050B16"/>
</svg>
