<svg width="48" height="48" viewBox="0 0 48 48" fill="none" xmlns="http://www.w3.org/2000/svg">
<path d="M3 14.0625C3 18.75 4.59375 23.1562 7.21875 26.625L4.59375 28.125C1.6875 24.1875 0 19.3125 0 14.0625C0 8.8125 1.6875 3.9375 4.59375 0L7.21875 1.5C4.59375 4.96875 3 9.375 3 14.0625ZM9 14.0625C9 10.4062 10.3125 7.03125 12.4688 4.5L15.0938 6C13.2188 8.15625 12 10.9688 12 14.0625C12 17.1562 13.2188 19.9688 15.0938 22.125L12.4688 23.625C10.3125 21.0938 9 17.7188 9 14.0625ZM35.5312 4.5C37.6875 7.03125 39 10.4062 39 14.0625C39 17.7188 37.6875 21.0938 35.5312 23.625L32.9062 22.125C34.7812 19.9688 36 17.1562 36 14.0625C36 10.9688 34.7812 8.15625 32.9062 6L35.5312 4.5ZM45 14.0625C45 9.375 43.4062 4.96875 40.7812 1.5L43.4062 0C46.3125 3.9375 48 8.8125 48 14.0625C48 19.3125 46.3125 24.1875 43.4062 28.125L40.7812 26.625C43.4062 23.1562 45 18.75 45 14.0625ZM24 17.0625C25.6875 17.0625 27 15.75 27 14.0625C27 12.375 25.6875 11.0625 24 11.0625C22.3125 11.0625 21 12.375 21 14.0625C21 15.75 22.3125 17.0625 24 17.0625ZM30 14.0625C30 16.875 28.125 19.2188 25.5 19.875V47.0625H22.5V19.875C19.875 19.2188 18 16.875 18 14.0625C18 10.7812 20.7188 8.0625 24 8.0625C27.2812 8.0625 30 10.7812 30 14.0625Z" fill="#5BFCFB"/>
</svg>
