<svg width="32" height="27" viewBox="0 0 32 27" fill="none" xmlns="http://www.w3.org/2000/svg">
<path d="M12.8005 5.6001C12.8005 7.3501 14.2005 8.8001 16.0005 8.8001C17.7505 8.8001 19.2005 7.3501 19.2005 5.6001C19.2005 3.8501 17.7505 2.4001 16.0005 2.4001C14.2005 2.4001 12.8005 3.8501 12.8005 5.6001ZM21.6005 5.6001C21.6005 8.7001 19.0505 11.2001 16.0005 11.2001C12.9005 11.2001 10.4005 8.7001 10.4005 5.6001C10.4005 2.5001 12.9005 9.57251e-05 16.0005 9.57251e-05C19.0505 9.57251e-05 21.6005 2.5001 21.6005 5.6001ZM9.60052 21.2001V22.0001C9.60052 22.6501 9.05052 23.2001 8.40052 23.2001C7.70052 23.2001 7.20052 22.6501 7.20052 22.0001V21.2001C7.20052 17.0001 10.6005 13.6001 14.8005 13.6001H17.2005C17.9505 13.6001 18.6505 13.7001 19.3505 13.9001C19.1505 14.0501 18.9505 14.2501 18.7505 14.4501C18.3505 14.9501 18.0005 15.5001 17.7505 16.0501C17.5505 16.0001 17.3505 16.0001 17.2005 16.0001H14.8005C11.9005 16.0001 9.60052 18.3501 9.60052 21.2001ZM26.5505 11.2501C25.8005 11.1501 25.0005 11.2001 24.2505 11.3001C23.7005 11.4001 23.2505 11.6001 22.8505 11.8501C22.4005 11.7501 21.9505 11.6001 21.5505 11.3501C22.1505 10.8001 22.6505 10.1001 23.0005 9.4001C23.3005 9.5501 23.6505 9.6001 24.0005 9.6001C25.3005 9.6001 26.4005 8.5501 26.4005 7.2001C26.4005 5.9001 25.3005 4.8001 24.0005 4.8001H23.9505C23.8505 4.0001 23.6505 3.2001 23.3505 2.4501C23.5505 2.4001 23.7505 2.4001 24.0005 2.4001C26.6505 2.4001 28.8005 4.5501 28.8005 7.2001C28.8005 8.9001 27.9005 10.4001 26.5505 11.2501ZM8.60052 2.4501C8.30052 3.2001 8.10052 3.9501 8.00052 4.8001C6.65052 4.8001 5.60052 5.9001 5.60052 7.2001C5.60052 8.5501 6.65052 9.6001 8.00052 9.6001C8.30052 9.6001 8.65052 9.5501 8.95052 9.4001C9.35052 10.1001 9.80052 10.8001 10.4005 11.3501C9.70052 11.7501 8.85052 12.0001 8.00052 12.0001C5.35052 12.0001 3.20052 9.8501 3.20052 7.2001C3.20052 4.5501 5.35052 2.4001 8.00052 2.4001C8.20052 2.4001 8.40052 2.4001 8.60052 2.4501ZM0.000519566 22.0001C0.000519566 17.8501 3.30052 14.4501 7.45052 14.4001C6.70052 15.2001 6.05052 16.1501 5.60052 17.2001C3.70052 17.9501 2.40052 19.8001 2.40052 22.0001C2.40052 22.6501 1.85052 23.2001 1.20052 23.2001C0.50052 23.2001 0.000519566 22.6501 0.000519566 22.0001ZM31.2005 18.6001C30.1005 19.2501 30.1005 20.7501 31.2005 21.4001C31.5005 21.6001 31.7005 21.9501 31.5505 22.3001C31.3005 22.9001 30.9505 23.5001 30.5505 24.0001C30.3005 24.3001 29.9005 24.3501 29.6005 24.1501C28.5005 23.5501 27.1505 24.3001 27.1505 25.5501C27.1505 25.9501 26.9505 26.2501 26.5505 26.3001C25.9005 26.4001 25.2505 26.4001 24.6005 26.3001C24.2005 26.2501 24.0005 25.9501 24.0005 25.5501C24.0005 24.3001 22.6505 23.5501 21.5505 24.1501C21.2505 24.3501 20.8505 24.3001 20.6005 24.0001C20.2005 23.5001 19.8505 22.9001 19.6005 22.3001C19.4505 21.9501 19.6505 21.6001 19.9505 21.4001C21.0505 20.7501 21.0505 19.2001 19.9505 18.6001C19.6505 18.4001 19.4505 18.0501 19.6005 17.7001C19.8505 17.1001 20.2005 16.5001 20.6005 16.0001C20.8505 15.7001 21.2505 15.6501 21.5505 15.8501C22.6505 16.4501 24.0005 15.7001 24.0005 14.4001C24.0005 14.0501 24.2005 13.7501 24.6005 13.7001C25.2505 13.6001 25.9005 13.6001 26.5505 13.7001C26.9505 13.7501 27.1505 14.0501 27.1505 14.4001C27.1505 15.7001 28.5005 16.4501 29.6005 15.8501C29.9005 15.6501 30.3005 15.7001 30.5505 16.0001C30.9505 16.5001 31.3005 17.1001 31.5505 17.7001C31.7005 18.0501 31.5005 18.4001 31.2005 18.6001ZM23.6005 20.0001C23.6005 21.1001 24.4505 22.0001 25.6005 22.0001C26.7005 22.0001 27.6005 21.1001 27.6005 20.0001C27.6005 18.9001 26.7005 18.0001 25.6005 18.0001C24.4505 18.0001 23.6005 18.9001 23.6005 20.0001Z" fill="#171C26"/>
</svg>
